<svg width="230" height="230" viewBox="0 0 230 230" fill="none" xmlns="http://www.w3.org/2000/svg">
<g clip-path="url(#clip0_2_2)">
<path d="M22 75.0959C22 41.7365 51.4583 16.058 84.5056 20.6105L170.506 32.4574C197.724 36.2069 218 59.4675 218 86.9429V155.539C218 188.677 188.913 214.29 156.041 210.097L70.0411 199.128C42.5784 195.625 22 172.255 22 144.57V75.0959Z" fill="#3D21E8"/>
<path d="M11.572 135.839C3.76819 104.592 24.2927 73.0801 56.0858 67.94L141.293 54.1643C169.5 49.6039 196.501 67.4054 203.425 95.1278V95.1278C211.195 126.238 190.808 157.372 159.185 162.687L74.1078 176.986C45.7962 181.744 18.5284 163.692 11.572 135.839V135.839Z" fill="#0C0C0C"/>
<path d="M62.364 75.344C63.9 75.344 65.268 75.656 66.468 76.28C67.692 76.88 68.652 77.816 69.348 79.088C70.044 80.336 70.392 81.944 70.392 83.912V95H64.776V84.776C64.776 83.216 64.428 82.064 63.732 81.32C63.06 80.576 62.1 80.204 60.852 80.204C59.964 80.204 59.16 80.396 58.44 80.78C57.744 81.14 57.192 81.704 56.784 82.472C56.4 83.24 56.208 84.224 56.208 85.424V95H50.592V75.632H55.956V80.996L54.948 79.376C55.644 78.08 56.64 77.084 57.936 76.388C59.232 75.692 60.708 75.344 62.364 75.344ZM83.4746 95.288C81.2666 95.288 79.3226 94.856 77.6426 93.992C75.9866 93.128 74.7026 91.952 73.7906 90.464C72.8786 88.952 72.4226 87.236 72.4226 85.316C72.4226 83.372 72.8666 81.656 73.7546 80.168C74.6666 78.656 75.9026 77.48 77.4626 76.64C79.0226 75.776 80.7866 75.344 82.7546 75.344C84.6506 75.344 86.3546 75.752 87.8666 76.568C89.4026 77.36 90.6146 78.512 91.5026 80.024C92.3906 81.512 92.8346 83.3 92.8346 85.388C92.8346 85.604 92.8226 85.856 92.7986 86.144C92.7746 86.408 92.7506 86.66 92.7266 86.9H76.9946V83.624H89.7746L87.6146 84.596C87.6146 83.588 87.4106 82.712 87.0026 81.968C86.5946 81.224 86.0306 80.648 85.3106 80.24C84.5906 79.808 83.7506 79.592 82.7906 79.592C81.8306 79.592 80.9786 79.808 80.2346 80.24C79.5146 80.648 78.9506 81.236 78.5426 82.004C78.1346 82.748 77.9306 83.636 77.9306 84.668V85.532C77.9306 86.588 78.1586 87.524 78.6146 88.34C79.0946 89.132 79.7546 89.744 80.5946 90.176C81.4586 90.584 82.4666 90.788 83.6186 90.788C84.6506 90.788 85.5506 90.632 86.3186 90.32C87.1106 90.008 87.8306 89.54 88.4786 88.916L91.4666 92.156C90.5786 93.164 89.4626 93.944 88.1186 94.496C86.7746 95.024 85.2266 95.288 83.4746 95.288ZM93.5982 95L102.274 83.624L102.166 86.72L93.8502 75.632H100.15L105.406 82.868L103.03 82.94L108.466 75.632H114.442L106.09 86.612V83.588L114.73 95H108.358L102.85 87.296L105.19 87.62L99.7182 95H93.5982ZM125.376 95.288C123.096 95.288 121.32 94.712 120.048 93.56C118.776 92.384 118.14 90.644 118.14 88.34V71.348H123.756V88.268C123.756 89.084 123.972 89.72 124.404 90.176C124.836 90.608 125.424 90.824 126.168 90.824C127.056 90.824 127.812 90.584 128.436 90.104L129.948 94.064C129.372 94.472 128.676 94.784 127.86 95C127.068 95.192 126.24 95.288 125.376 95.288ZM115.152 80.384V76.064H128.58V80.384H115.152ZM132.029 87.116V82.616H142.217V87.116H132.029ZM62.04 128.288C60.336 128.288 58.872 127.928 57.648 127.208C56.424 126.488 55.488 125.396 54.84 123.932C54.192 122.444 53.868 120.572 53.868 118.316C53.868 116.036 54.204 114.164 54.876 112.7C55.572 111.236 56.532 110.144 57.756 109.424C58.98 108.704 60.408 108.344 62.04 108.344C63.864 108.344 65.496 108.752 66.936 109.568C68.4 110.384 69.552 111.536 70.392 113.024C71.256 114.512 71.688 116.276 71.688 118.316C71.688 120.332 71.256 122.084 70.392 123.572C69.552 125.06 68.4 126.224 66.936 127.064C65.496 127.88 63.864 128.288 62.04 128.288ZM50.592 128V101.288H56.208V112.556L55.848 118.28L55.956 124.04V128H50.592ZM61.068 123.68C62.004 123.68 62.832 123.464 63.552 123.032C64.296 122.6 64.884 121.988 65.316 121.196C65.772 120.38 66 119.42 66 118.316C66 117.188 65.772 116.228 65.316 115.436C64.884 114.644 64.296 114.032 63.552 113.6C62.832 113.168 62.004 112.952 61.068 112.952C60.132 112.952 59.292 113.168 58.548 113.6C57.804 114.032 57.216 114.644 56.784 115.436C56.352 116.228 56.136 117.188 56.136 118.316C56.136 119.42 56.352 120.38 56.784 121.196C57.216 121.988 57.804 122.6 58.548 123.032C59.292 123.464 60.132 123.68 61.068 123.68ZM85.0595 128.288C82.8515 128.288 80.9075 127.856 79.2275 126.992C77.5715 126.128 76.2875 124.952 75.3755 123.464C74.4635 121.952 74.0075 120.236 74.0075 118.316C74.0075 116.372 74.4515 114.656 75.3395 113.168C76.2515 111.656 77.4875 110.48 79.0475 109.64C80.6075 108.776 82.3715 108.344 84.3395 108.344C86.2355 108.344 87.9395 108.752 89.4515 109.568C90.9875 110.36 92.1995 111.512 93.0875 113.024C93.9755 114.512 94.4195 116.3 94.4195 118.388C94.4195 118.604 94.4075 118.856 94.3835 119.144C94.3595 119.408 94.3355 119.66 94.3115 119.9H78.5795V116.624H91.3595L89.1995 117.596C89.1995 116.588 88.9955 115.712 88.5875 114.968C88.1795 114.224 87.6155 113.648 86.8955 113.24C86.1755 112.808 85.3355 112.592 84.3755 112.592C83.4155 112.592 82.5635 112.808 81.8195 113.24C81.0995 113.648 80.5355 114.236 80.1275 115.004C79.7195 115.748 79.5155 116.636 79.5155 117.668V118.532C79.5155 119.588 79.7435 120.524 80.1995 121.34C80.6795 122.132 81.3395 122.744 82.1795 123.176C83.0435 123.584 84.0515 123.788 85.2035 123.788C86.2355 123.788 87.1355 123.632 87.9035 123.32C88.6955 123.008 89.4155 122.54 90.0635 121.916L93.0515 125.156C92.1635 126.164 91.0475 126.944 89.7035 127.496C88.3595 128.024 86.8115 128.288 85.0595 128.288ZM106.078 128.288C103.798 128.288 102.022 127.712 100.75 126.56C99.4784 125.384 98.8424 123.644 98.8424 121.34V104.348H104.458V121.268C104.458 122.084 104.674 122.72 105.106 123.176C105.538 123.608 106.126 123.824 106.87 123.824C107.758 123.824 108.514 123.584 109.138 123.104L110.65 127.064C110.074 127.472 109.378 127.784 108.562 128C107.77 128.192 106.942 128.288 106.078 128.288ZM95.8544 113.384V109.064H109.282V113.384H95.8544ZM121.301 128.288C119.021 128.288 117.245 127.712 115.973 126.56C114.701 125.384 114.065 123.644 114.065 121.34V104.348H119.681V121.268C119.681 122.084 119.897 122.72 120.329 123.176C120.761 123.608 121.349 123.824 122.093 123.824C122.981 123.824 123.737 123.584 124.361 123.104L125.873 127.064C125.297 127.472 124.601 127.784 123.785 128C122.993 128.192 122.165 128.288 121.301 128.288ZM111.077 113.384V109.064H124.505V113.384H111.077ZM138.04 128.288C135.832 128.288 133.888 127.856 132.208 126.992C130.552 126.128 129.268 124.952 128.356 123.464C127.444 121.952 126.988 120.236 126.988 118.316C126.988 116.372 127.432 114.656 128.32 113.168C129.232 111.656 130.468 110.48 132.028 109.64C133.588 108.776 135.352 108.344 137.32 108.344C139.216 108.344 140.92 108.752 142.432 109.568C143.968 110.36 145.18 111.512 146.068 113.024C146.956 114.512 147.4 116.3 147.4 118.388C147.4 118.604 147.388 118.856 147.364 119.144C147.34 119.408 147.316 119.66 147.292 119.9H131.56V116.624H144.34L142.18 117.596C142.18 116.588 141.976 115.712 141.568 114.968C141.16 114.224 140.596 113.648 139.876 113.24C139.156 112.808 138.316 112.592 137.356 112.592C136.396 112.592 135.544 112.808 134.8 113.24C134.08 113.648 133.516 114.236 133.108 115.004C132.7 115.748 132.496 116.636 132.496 117.668V118.532C132.496 119.588 132.724 120.524 133.18 121.34C133.66 122.132 134.32 122.744 135.16 123.176C136.024 123.584 137.032 123.788 138.184 123.788C139.216 123.788 140.116 123.632 140.884 123.32C141.676 123.008 142.396 122.54 143.044 121.916L146.032 125.156C145.144 126.164 144.028 126.944 142.684 127.496C141.34 128.024 139.792 128.288 138.04 128.288ZM151.139 128V108.632H156.503V114.104L155.747 112.52C156.323 111.152 157.247 110.12 158.519 109.424C159.791 108.704 161.339 108.344 163.163 108.344V113.528C162.923 113.504 162.707 113.492 162.515 113.492C162.323 113.468 162.119 113.456 161.903 113.456C160.367 113.456 159.119 113.9 158.159 114.788C157.223 115.652 156.755 117.008 156.755 118.856V128H151.139ZM165.606 120.116V115.616H175.794V120.116H165.606ZM62.472 161V157.22L62.112 156.392V149.624C62.112 148.424 61.74 147.488 60.996 146.816C60.276 146.144 59.16 145.808 57.648 145.808C56.616 145.808 55.596 145.976 54.588 146.312C53.604 146.624 52.764 147.056 52.068 147.608L50.052 143.684C51.108 142.94 52.38 142.364 53.868 141.956C55.356 141.548 56.868 141.344 58.404 141.344C61.356 141.344 63.648 142.04 65.28 143.432C66.912 144.824 67.728 146.996 67.728 149.948V161H62.472ZM56.568 161.288C55.056 161.288 53.76 161.036 52.68 160.532C51.6 160.004 50.772 159.296 50.196 158.408C49.62 157.52 49.332 156.524 49.332 155.42C49.332 154.268 49.608 153.26 50.16 152.396C50.736 151.532 51.636 150.86 52.86 150.38C54.084 149.876 55.68 149.624 57.648 149.624H62.796V152.9H58.26C56.94 152.9 56.028 153.116 55.524 153.548C55.044 153.98 54.804 154.52 54.804 155.168C54.804 155.888 55.08 156.464 55.632 156.896C56.208 157.304 56.988 157.508 57.972 157.508C58.908 157.508 59.748 157.292 60.492 156.86C61.236 156.404 61.776 155.744 62.112 154.88L62.976 157.472C62.568 158.72 61.824 159.668 60.744 160.316C59.664 160.964 58.272 161.288 56.568 161.288ZM82.0988 161.288C80.4668 161.288 79.0388 160.928 77.8148 160.208C76.5908 159.488 75.6308 158.396 74.9348 156.932C74.2628 155.444 73.9268 153.572 73.9268 151.316C73.9268 149.036 74.2508 147.164 74.8988 145.7C75.5468 144.236 76.4828 143.144 77.7068 142.424C78.9308 141.704 80.3948 141.344 82.0988 141.344C83.9228 141.344 85.5548 141.764 86.9948 142.604C88.4588 143.42 89.6108 144.572 90.4508 146.06C91.3148 147.548 91.7468 149.3 91.7468 151.316C91.7468 153.356 91.3148 155.12 90.4508 156.608C89.6108 158.096 88.4588 159.248 86.9948 160.064C85.5548 160.88 83.9228 161.288 82.0988 161.288ZM70.6508 167.984V141.632H76.0148V145.592L75.9068 151.352L76.2668 157.076V167.984H70.6508ZM81.1268 156.68C82.0628 156.68 82.8908 156.464 83.6108 156.032C84.3548 155.6 84.9428 154.988 85.3748 154.196C85.8308 153.38 86.0588 152.42 86.0588 151.316C86.0588 150.188 85.8308 149.228 85.3748 148.436C84.9428 147.644 84.3548 147.032 83.6108 146.6C82.8908 146.168 82.0628 145.952 81.1268 145.952C80.1908 145.952 79.3508 146.168 78.6068 146.6C77.8628 147.032 77.2748 147.644 76.8428 148.436C76.4108 149.228 76.1948 150.188 76.1948 151.316C76.1948 152.42 76.4108 153.38 76.8428 154.196C77.2748 154.988 77.8628 155.6 78.6068 156.032C79.3508 156.464 80.1908 156.68 81.1268 156.68ZM95.5062 161V141.632H101.122V161H95.5062ZM98.3142 138.932C97.2822 138.932 96.4422 138.632 95.7942 138.032C95.1462 137.432 94.8222 136.688 94.8222 135.8C94.8222 134.912 95.1462 134.168 95.7942 133.568C96.4422 132.968 97.2822 132.668 98.3142 132.668C99.3462 132.668 100.186 132.956 100.834 133.532C101.482 134.084 101.806 134.804 101.806 135.692C101.806 136.628 101.482 137.408 100.834 138.032C100.21 138.632 99.3702 138.932 98.3142 138.932Z" fill="#DBFF00"/>
</g>
<defs>
<clipPath id="clip0_2_2">
<rect width="230" height="230" fill="white"/>
</clipPath>
</defs>
</svg>
